<svg xmlns="http://www.w3.org/2000/svg" viewBox="0 0 448 512">
  <!-- Font Awesome Pencil Square O Icon -->
  <path fill="currentColor" d="M400 480H48c-26.51 0-48-21.49-48-48V80c0-26.51 21.49-48 48-48h352c26.51 0 48 21.49 48 48v352c0 26.51-21.49 48-48 48zM176 208H80v96h96v-96zm192 0H272v96h96v-96zm-192 144H80v96h96v-96zm192 0H272v96h96v-96z"/>
  <path fill="currentColor" d="M368 224H272v-16c0-8.837-7.163-16-16-16H192c-8.837 0-16 7.163-16 16v16H80v-16c0-17.673 14.327-32 32-32h64c17.673 0 32 14.327 32 32v16h96v-16c0-17.673 14.327-32 32-32h32c17.673 0 32 14.327 32 32v16z"/>
  <path fill="currentColor" d="M304 320H224v-16c0-8.837-7.163-16-16-16h-32c-8.837 0-16 7.163-16 16v16H80v-16c0-17.673 14.327-32 32-32h32c17.673 0 32 14.327 32 32v16h80v-16c0-17.673 14.327-32 32-32h32c17.673 0 32 14.327 32 32v16h-48z"/>
</svg>